<?xml version="1.0" encoding="UTF-8" standalone="no"?>
<svg xmlns:xlink="http://www.w3.org/1999/xlink" height="31.0px" width="31.0px" xmlns="http://www.w3.org/2000/svg">
    <g transform="matrix(1.0, 0.0, 0.0, 1.0, 15.5, 15.5)">
        <use height="26.5" transform="matrix(1.0, 0.0, 0.0, 1.0, -14.7, -13.25)" width="27.95" xlink:href="#shape0"/>
        <use height="31.0" transform="matrix(1.0, 0.0, 0.0, 1.0, -15.5, -15.5)" width="31.0" xlink:href="#sprite0"/>
    </g>
    <defs>
        <g id="shape0" transform="matrix(1.0, 0.0, 0.0, 1.0, 14.7, 13.25)">
            <path d="M8.85 -8.85 Q12.5 -5.15 12.5 0.0 12.5 5.2 8.85 8.85 5.2 12.5 0.0 12.5 -5.15 12.5 -8.85 8.85 -12.5 5.2 -12.5 0.0 -12.5 -5.15 -8.85 -8.85 -5.15 -12.5 0.0 -12.5 5.2 -12.5 8.85 -8.85 Z"
                  fill="none" stroke="#ffffff" stroke-linecap="butt" stroke-linejoin="miter-clip"
                  stroke-miterlimit="10.0" stroke-width="1.5"/>
            <path d="M-3.35 -2.1 Q-5.05 -0.9 -5.4 0.7 -5.6 1.65 -5.2 2.35 -4.9 2.95 -4.3 3.0 -3.8 3.0 -3.7 2.25 L-1.75 -3.0 -3.35 -2.1 M-1.65 -8.5 Q-1.3 -9.5 0.0 -9.5 1.3 -9.5 1.65 -8.45 2.25 -6.85 7.55 2.7 8.1 4.9 6.2 5.4 4.35 5.9 3.25 4.45 L1.65 3.0 1.2 2.9 1.05 3.5 Q1.15 4.4 2.25 5.75 3.3 7.15 2.7 8.25 2.05 9.4 0.0 9.55 -2.05 9.4 -2.65 8.25 -3.25 7.15 -2.2 5.75 -1.1 4.4 -1.0 3.5 L-1.15 2.9 -1.65 3.0 Q-2.3 3.3 -3.15 4.45 -4.3 5.9 -6.3 5.2 -8.35 4.45 -7.35 2.2 L-4.35 -2.55 Q-2.3 -5.7 -1.65 -8.5 M0.55 -8.35 L-0.55 -8.35 -0.55 8.3 0.55 8.3 0.55 -8.35 M5.2 2.35 Q5.55 1.65 5.35 0.7 5.05 -0.9 3.35 -2.1 L1.75 -3.0 3.65 2.25 Q3.75 3.0 4.25 3.0 4.85 2.95 5.2 2.35"
                  fill="#ffffff" fill-rule="evenodd" stroke="none"/>
        </g>
        <g id="sprite0" transform="matrix(1.0, 0.0, 0.0, 1.0, 15.5, 15.5)">
            <use height="31.0" transform="matrix(1.0, 0.0, 0.0, 1.0, -15.5, -15.5)" width="31.0" xlink:href="#shape1"/>
        </g>
        <g id="shape1" transform="matrix(1.0, 0.0, 0.0, 1.0, 15.5, 15.5)">
            <path d="M10.6 -10.6 Q15.0 -6.2 15.0 0.0 15.0 6.25 10.6 10.6 6.25 15.0 0.0 15.0 -6.2 15.0 -10.6 10.6 -15.0 6.25 -15.0 0.0 -15.0 -6.2 -10.6 -10.6 -6.2 -15.0 0.0 -15.0 6.2 -15.0 10.6 -10.6 Z"
                  fill="none" stroke="#ffffff" stroke-linecap="butt" stroke-linejoin="miter-clip"
                  stroke-miterlimit="10.0" stroke-width="1.0"/>
        </g>
    </defs>
</svg>
