<?xml version="1.0" encoding="UTF-8" standalone="no"?>
<svg xmlns:xlink="http://www.w3.org/1999/xlink" height="31.0px" width="31.0px" xmlns="http://www.w3.org/2000/svg">
    <g transform="matrix(1.0, 0.0, 0.0, 1.0, 15.5, 15.5)">
        <use height="31.0" transform="matrix(1.0, 0.0, 0.0, 1.0, -15.5, -15.5)" width="31.0" xlink:href="#shape0"/>
    </g>
    <defs>
        <g id="shape0" transform="matrix(1.0, 0.0, 0.0, 1.0, 15.5, 15.5)">
            <path d="M8.85 -8.85 Q12.5 -5.15 12.5 0.0 12.5 5.2 8.85 8.85 5.2 12.5 0.0 12.5 -5.2 12.5 -8.85 8.85 -12.5 5.2 -12.5 0.0 -12.5 -5.2 -8.85 -8.85 -5.2 -12.5 0.0 -12.5 5.2 -12.5 8.85 -8.85 Z"
                  fill="none" stroke="#ffffff" stroke-linecap="butt" stroke-linejoin="miter-clip"
                  stroke-miterlimit="10.0" stroke-width="1.5"/>
            <path d="M2.95 -6.5 Q1.8 -7.65 0.2 -7.65 -1.4 -7.65 -2.55 -6.5 -3.65 -5.35 -3.65 -3.75 -3.65 -2.15 -2.55 -1.05 -1.4 0.1 0.2 0.1 1.8 0.1 2.95 -1.05 4.1 -2.15 4.1 -3.75 4.1 -5.35 2.95 -6.5 M0.2 -9.55 Q2.7 -9.55 4.4 -7.8 6.15 -6.05 6.15 -3.6 6.15 -1.45 4.8 0.2 3.45 1.85 1.4 2.25 L1.4 3.45 4.85 3.45 4.85 5.9 1.4 5.9 1.4 9.55 -1.3 9.55 -1.3 5.9 -4.8 5.9 -4.8 3.45 -1.3 3.45 -1.3 2.15 Q-3.25 1.65 -4.5 0.05 -5.75 -1.55 -5.75 -3.6 -5.75 -6.05 -4.0 -7.8 -2.25 -9.55 0.2 -9.55"
                  fill="#ffffff" fill-rule="evenodd" stroke="none"/>
            <path d="M10.6 -10.6 Q15.0 -6.2 15.0 0.0 15.0 6.25 10.6 10.6 6.25 15.0 0.0 15.0 -6.2 15.0 -10.6 10.6 -15.0 6.25 -15.0 0.0 -15.0 -6.2 -10.6 -10.6 -6.2 -15.0 0.0 -15.0 6.2 -15.0 10.6 -10.6 Z"
                  fill="none" stroke="#ffffff" stroke-linecap="butt" stroke-linejoin="miter-clip"
                  stroke-miterlimit="10.0" stroke-width="1.0"/>
        </g>
    </defs>
</svg>
