<?xml version="1.0" encoding="UTF-8" standalone="no"?>
<svg xmlns:xlink="http://www.w3.org/1999/xlink" height="31.0px" width="31.0px" xmlns="http://www.w3.org/2000/svg">
    <g transform="matrix(1.0, 0.0, 0.0, 1.0, 15.5, 15.5)">
        <use height="31.0" transform="matrix(1.0, 0.0, 0.0, 1.0, -15.5, -15.5)" width="31.0" xlink:href="#sprite0"/>
        <use height="26.5" transform="matrix(1.0, 0.0, 0.0, 1.0, -14.7, -13.25)" width="27.95" xlink:href="#shape1"/>
    </g>
    <defs>
        <g id="sprite0" transform="matrix(1.0, 0.0, 0.0, 1.0, 15.5, 15.5)">
            <use height="31.0" transform="matrix(1.0, 0.0, 0.0, 1.0, -15.5, -15.5)" width="31.0" xlink:href="#shape0"/>
        </g>
        <g id="shape0" transform="matrix(1.0, 0.0, 0.0, 1.0, 15.5, 15.5)">
            <path d="M10.6 -10.6 Q15.0 -6.2 15.0 0.0 15.0 6.25 10.6 10.6 6.25 15.0 0.0 15.0 -6.2 15.0 -10.6 10.6 -15.0 6.25 -15.0 0.0 -15.0 -6.2 -10.6 -10.6 -6.2 -15.0 0.0 -15.0 6.2 -15.0 10.6 -10.6 Z"
                  fill="none" stroke="#ffffff" stroke-linecap="butt" stroke-linejoin="miter-clip"
                  stroke-miterlimit="10.0" stroke-width="1.0"/>
        </g>
        <g id="shape1" transform="matrix(1.0, 0.0, 0.0, 1.0, 14.7, 13.25)">
            <path d="M8.85 -8.85 Q12.5 -5.15 12.5 0.0 12.5 5.2 8.85 8.85 5.2 12.5 0.0 12.5 -5.15 12.5 -8.85 8.85 -12.5 5.2 -12.5 0.0 -12.5 -5.15 -8.85 -8.85 -5.15 -12.5 0.0 -12.5 5.2 -12.5 8.85 -8.85 Z"
                  fill="none" stroke="#ffffff" stroke-linecap="butt" stroke-linejoin="miter-clip"
                  stroke-miterlimit="10.0" stroke-width="1.5"/>
            <path d="M-5.4 -0.5 Q-6.55 0.65 -6.55 2.3 -6.55 3.95 -5.4 5.1 -4.25 6.25 -2.6 6.25 -0.95 6.25 0.2 5.1 1.35 3.95 1.35 2.3 1.35 0.65 0.2 -0.5 -0.95 -1.65 -2.6 -1.65 -4.25 -1.65 -5.4 -0.5 M7.25 -7.35 L7.25 -0.8 5.45 -0.8 5.45 -3.6 2.6 -0.7 Q3.4 0.75 3.4 2.35 3.4 4.85 1.65 6.65 -0.15 8.4 -2.65 8.4 -5.15 8.4 -6.95 6.65 -8.75 4.85 -8.75 2.35 -8.75 -0.15 -6.95 -1.95 -5.15 -3.75 -2.65 -3.75 -0.65 -3.75 0.95 -2.55 L4.05 -5.65 1.1 -5.65 1.1 -7.35 7.25 -7.35"
                  fill="#ffffff" fill-rule="evenodd" stroke="none"/>
        </g>
    </defs>
</svg>
