<?xml version="1.0" encoding="UTF-8" standalone="no"?>
<svg xmlns:xlink="http://www.w3.org/1999/xlink" height="31.0px" width="31.0px" xmlns="http://www.w3.org/2000/svg">
    <g transform="matrix(1.0, 0.0, 0.0, 1.0, 15.5, 15.5)">
        <use height="31.0" transform="matrix(1.0, 0.0, 0.0, 1.0, -15.5, -15.5)" width="31.0" xlink:href="#sprite0"/>
        <use height="26.5" transform="matrix(1.0, 0.0, 0.0, 1.0, -14.7, -13.25)" width="27.95" xlink:href="#shape1"/>
    </g>
    <defs>
        <g id="sprite0" transform="matrix(1.0, 0.0, 0.0, 1.0, 15.5, 15.5)">
            <use height="31.0" transform="matrix(1.0, 0.0, 0.0, 1.0, -15.5, -15.5)" width="31.0" xlink:href="#shape0"/>
        </g>
        <g id="shape0" transform="matrix(1.0, 0.0, 0.0, 1.0, 15.5, 15.5)">
            <path d="M10.6 -10.6 Q15.0 -6.2 15.0 0.0 15.0 6.25 10.6 10.6 6.25 15.0 0.0 15.0 -6.2 15.0 -10.6 10.6 -15.0 6.25 -15.0 0.0 -15.0 -6.2 -10.6 -10.6 -6.2 -15.0 0.0 -15.0 6.2 -15.0 10.6 -10.6 Z"
                  fill="none" stroke="#ffffff" stroke-linecap="butt" stroke-linejoin="miter-clip"
                  stroke-miterlimit="10.0" stroke-width="1.0"/>
        </g>
        <g id="shape1" transform="matrix(1.0, 0.0, 0.0, 1.0, 14.7, 13.25)">
            <path d="M8.85 -8.85 Q12.5 -5.15 12.5 0.0 12.5 5.2 8.85 8.85 5.2 12.5 0.0 12.5 -5.15 12.5 -8.85 8.85 -12.5 5.2 -12.5 0.0 -12.5 -5.15 -8.85 -8.85 -5.15 -12.5 0.0 -12.5 5.2 -12.5 8.85 -8.85 Z"
                  fill="none" stroke="#ffffff" stroke-linecap="butt" stroke-linejoin="miter-clip"
                  stroke-miterlimit="10.0" stroke-width="1.5"/>
            <path d="M9.6 -4.65 Q9.05 -3.45 8.2 -4.1 L6.95 -5.35 Q5.25 -6.7 3.5 -7.0 0.9 -7.4 -3.6 -4.85 -7.3 -2.75 -9.5 -4.65 L-9.5 -4.85 Q-7.05 -4.15 -4.0 -6.3 -0.55 -8.75 1.35 -8.8 L3.5 -8.8 Q6.85 -8.15 9.6 -5.2 L9.6 -4.65"
                  fill="#ffffff" fill-rule="evenodd" stroke="none"/>
            <path d="M5.65 -3.25 L3.85 -4.1 Q4.7 -1.05 2.55 -0.35 0.45 0.35 0.2 -2.5 0.1 -2.9 0.3 -3.7 0.45 -4.25 0.2 -4.3 -2.35 -3.55 -4.15 -1.75 -1.85 0.15 1.45 0.25 4.95 0.35 6.95 -1.75 6.5 -2.65 5.65 -3.25 M9.45 -1.6 L7.7 -0.8 Q6.75 -0.3 6.55 0.75 L7.45 1.0 8.45 0.95 Q8.5 1.65 8.0 2.35 L7.05 3.65 6.45 5.9 5.8 8.2 Q5.55 7.15 5.45 5.2 L5.4 1.85 Q3.9 3.1 0.7 6.45 -2.25 9.05 -5.05 8.75 L-6.95 8.0 Q-8.15 7.3 -8.75 6.2 -10.25 3.15 -8.25 0.65 -6.3 -1.85 -4.65 0.75 -3.95 1.9 -4.25 3.65 -4.55 5.4 -5.55 5.65 -7.4 6.15 -7.6 3.8 -7.8 1.45 -5.95 1.85 -5.25 2.55 -5.3 3.65 -4.8 2.05 -5.4 1.3 -5.95 0.65 -6.95 1.0 -9.65 1.95 -8.1 5.1 -6.2 8.95 -1.7 6.35 1.35 4.6 4.1 1.15 2.75 1.9 0.75 1.65 -0.9 1.4 -2.5 0.6 L-5.0 -0.7 -8.1 -0.65 -8.25 -1.65 -8.1 -2.65 -4.7 -2.8 -1.85 -4.85 Q0.85 -6.2 3.45 -5.7 6.1 -5.1 7.95 -2.65 L9.05 -2.6 Q9.6 -2.45 9.45 -1.6"
                  fill="#ffffff" fill-rule="evenodd" stroke="none"/>
        </g>
    </defs>
</svg>
