<?xml version="1.0" encoding="UTF-8" standalone="no"?>
<svg xmlns:xlink="http://www.w3.org/1999/xlink" height="31.4px" width="31.4px" xmlns="http://www.w3.org/2000/svg">
    <g transform="matrix(1.0, 0.0, 0.0, 1.0, 15.7, 15.7)">
        <use height="25.2" transform="matrix(1.0, 0.0, 0.0, 1.0, -12.6, -12.6)" width="25.2" xlink:href="#shape0"/>
        <use height="31.4" transform="matrix(1.0, 0.0, 0.0, 1.0, -15.7, -15.7)" width="31.4" xlink:href="#sprite0"/>
    </g>
    <defs>
        <g id="shape0" transform="matrix(1.0, 0.0, 0.0, 1.0, 12.6, 12.6)">
            <path d="M0.0 11.5 L-11.5 0.0 0.0 -11.5 11.5 0.0 0.0 11.5 Z" fill="none" stroke="#ffffff"
                  stroke-linecap="butt" stroke-linejoin="miter-clip" stroke-miterlimit="10.0" stroke-width="1.5"/>
            <path d="M1.8 -7.35 L1.8 -1.8 7.35 -1.8 7.35 1.85 1.8 1.85 1.8 7.4 -1.85 7.4 -1.85 1.85 -7.4 1.85 -7.4 -1.8 -1.85 -1.8 -1.85 -7.35 1.8 -7.35"
                  fill="#ffffff" fill-rule="evenodd" stroke="none"/>
        </g>
        <g id="sprite0" transform="matrix(1.0, 0.0, 0.0, 1.0, 15.7, 15.7)">
            <use height="31.4" transform="matrix(1.0, 0.0, 0.0, 1.0, -15.7, -15.7)" width="31.4" xlink:href="#shape1"/>
        </g>
        <g id="shape1" transform="matrix(1.0, 0.0, 0.0, 1.0, 15.7, 15.7)">
            <path d="M0.0 15.0 L-15.0 0.0 0.0 -15.0 15.0 0.0 0.0 15.0 Z" fill="none" stroke="#ffffff"
                  stroke-linecap="butt" stroke-linejoin="miter-clip" stroke-miterlimit="10.0" stroke-width="1.0"/>
        </g>
    </defs>
</svg>
