<?xml version="1.0" encoding="UTF-8" standalone="no"?>
<svg xmlns:xlink="http://www.w3.org/1999/xlink" height="31.0px" width="31.0px" xmlns="http://www.w3.org/2000/svg">
    <g transform="matrix(1.0, 0.0, 0.0, 1.0, 15.5, 15.5)">
        <use height="26.5" transform="matrix(1.0, 0.0, 0.0, 1.0, -14.7, -13.25)" width="27.95" xlink:href="#shape0"/>
        <use height="31.0" transform="matrix(1.0, 0.0, 0.0, 1.0, -15.5, -15.5)" width="31.0" xlink:href="#sprite0"/>
    </g>
    <defs>
        <g id="shape0" transform="matrix(1.0, 0.0, 0.0, 1.0, 14.7, 13.25)">
            <path d="M8.85 -8.85 Q12.5 -5.15 12.5 0.0 12.5 5.2 8.85 8.85 5.2 12.5 0.0 12.5 -5.15 12.5 -8.85 8.85 -12.5 5.2 -12.5 0.0 -12.5 -5.15 -8.85 -8.85 -5.15 -12.5 0.0 -12.5 5.2 -12.5 8.85 -8.85 Z"
                  fill="none" stroke="#ffffff" stroke-linecap="butt" stroke-linejoin="miter-clip"
                  stroke-miterlimit="10.0" stroke-width="1.5"/>
            <path d="M-0.5 1.0 Q-2.25 -0.15 -2.4 -1.7 -2.45 -2.6 -1.75 -3.55 L-0.55 -5.6 -0.65 -7.0 -0.7 -7.5 Q-0.8 -5.8 -2.3 -3.95 -3.6 -2.55 -3.5 -0.6 -3.4 1.05 -2.4 2.05 L-0.2 4.35 Q-0.8 2.5 -0.5 1.0 M-0.7 -9.8 L0.1 -9.65 0.0 8.2 -0.95 6.45 Q-2.1 4.65 -3.25 4.4 -4.35 4.15 -4.55 4.75 -4.75 5.3 -4.15 5.5 -3.5 5.65 -2.5 5.0 L-2.7 6.1 Q-3.2 7.25 -4.55 7.55 -6.05 7.95 -7.0 6.8 -8.05 5.6 -7.25 4.25 -6.55 3.05 -5.4 2.75 L-3.6 2.95 Q-4.75 2.4 -5.55 1.45 -7.0 -0.3 -6.0 -2.65 -5.25 -4.3 -3.65 -5.7 -1.85 -7.3 -1.05 -8.7 L-1.35 -9.5 Q-1.3 -9.8 -0.7 -9.8"
                  fill="#ffffff" fill-rule="evenodd" stroke="none"/>
            <path d="M0.55 -5.6 L1.75 -3.55 Q2.4 -2.6 2.35 -1.7 2.25 -0.15 0.5 1.0 0.8 2.5 0.2 4.35 L2.4 2.05 Q3.4 1.05 3.5 -0.6 3.6 -2.55 2.3 -3.95 0.85 -5.7 0.65 -7.5 L0.65 -7.0 0.55 -5.6 M-0.1 -9.65 L0.7 -9.8 Q1.3 -9.8 1.35 -9.5 L1.0 -8.7 Q1.85 -7.3 3.65 -5.7 5.25 -4.3 6.0 -2.65 7.0 -0.3 5.55 1.45 L3.65 2.95 5.45 2.75 Q6.55 3.05 7.25 4.25 8.0 5.65 7.0 6.8 6.05 7.95 4.55 7.55 3.2 7.25 2.7 6.1 L2.5 5.0 Q3.5 5.65 4.15 5.5 4.75 5.3 4.55 4.75 4.35 4.15 3.25 4.4 2.05 4.65 0.8 6.65 L0.0 8.2 -0.1 -9.65"
                  fill="#ffffff" fill-rule="evenodd" stroke="none"/>
        </g>
        <g id="sprite0" transform="matrix(1.0, 0.0, 0.0, 1.0, 15.5, 15.5)">
            <use height="31.0" transform="matrix(1.0, 0.0, 0.0, 1.0, -15.5, -15.5)" width="31.0" xlink:href="#shape1"/>
        </g>
        <g id="shape1" transform="matrix(1.0, 0.0, 0.0, 1.0, 15.5, 15.5)">
            <path d="M10.6 -10.6 Q15.0 -6.2 15.0 0.0 15.0 6.25 10.6 10.6 6.25 15.0 0.0 15.0 -6.2 15.0 -10.6 10.6 -15.0 6.25 -15.0 0.0 -15.0 -6.2 -10.6 -10.6 -6.2 -15.0 0.0 -15.0 6.2 -15.0 10.6 -10.6 Z"
                  fill="none" stroke="#ffffff" stroke-linecap="butt" stroke-linejoin="miter-clip"
                  stroke-miterlimit="10.0" stroke-width="1.0"/>
        </g>
    </defs>
</svg>
