<?xml version="1.0" encoding="UTF-8" standalone="no"?>
<svg xmlns:xlink="http://www.w3.org/1999/xlink" height="20.75px" width="21.0px" xmlns="http://www.w3.org/2000/svg">
    <g transform="matrix(1.0, 0.0, 0.0, 1.0, 10.45, 10.6)">
        <use height="20.75" transform="matrix(1.0, 0.0, 0.0, 1.0, -10.45, -10.6)" width="21.0" xlink:href="#shape0"/>
    </g>
    <defs>
        <g id="shape0" transform="matrix(1.0, 0.0, 0.0, 1.0, 10.45, 10.6)">
            <path d="M5.6 -8.45 Q5.5 -6.55 8.2 -2.9 10.85 0.7 10.5 4.3 9.9 10.15 5.3 10.15 3.9 10.15 2.95 9.2 L1.1 6.6 1.1 -10.6 3.4 -10.2 Q4.35 -9.8 5.6 -8.45"
                  fill="#e76570" fill-rule="evenodd" stroke="none"/>
            <path d="M-3.3 -10.2 L-1.0 -10.6 -1.0 6.6 Q-2.25 8.65 -2.85 9.2 -3.8 10.15 -5.2 10.15 -9.8 10.15 -10.4 4.3 -10.75 0.7 -8.1 -2.9 -5.4 -6.55 -5.5 -8.45 L-3.3 -10.2"
                  fill="#e76570" fill-rule="evenodd" stroke="none"/>
        </g>
    </defs>
</svg>
