<?xml version="1.0" encoding="UTF-8" standalone="no"?>
<svg xmlns:xlink="http://www.w3.org/1999/xlink" height="27.5px" width="26.3px" xmlns="http://www.w3.org/2000/svg">
    <g transform="matrix(1.0, 0.0, 0.0, 1.0, 13.1, 13.0)">
        <use height="27.5" transform="matrix(1.0, 0.0, 0.0, 1.0, -13.1, -13.0)" width="26.3" xlink:href="#shape0"/>
    </g>
    <defs>
        <g id="shape0" transform="matrix(1.0, 0.0, 0.0, 1.0, 13.1, 13.0)">
            <path d="M-8.1 -2.9 Q-10.75 0.7 -10.4 4.3 -9.8 10.15 -5.2 10.15 -3.8 10.15 -2.85 9.2 -2.25 8.65 -1.0 6.6 L-1.0 -10.6 -3.3 -10.2 -5.5 -8.45 Q-5.4 -6.55 -8.1 -2.9 Z"
                  fill="none" stroke="#ffffff" stroke-linecap="butt" stroke-linejoin="miter-clip"
                  stroke-miterlimit="10.0" stroke-width="1.0"/>
            <path d="M8.2 -2.9 Q10.85 0.7 10.5 4.3 9.9 10.15 5.3 10.15 3.9 10.15 2.95 9.2 L1.1 6.6 1.1 -10.6 3.4 -10.2 Q4.35 -9.8 5.6 -8.45 5.5 -6.55 8.2 -2.9 Z"
                  fill="none" stroke="#ffffff" stroke-linecap="butt" stroke-linejoin="miter-clip"
                  stroke-miterlimit="10.0" stroke-width="1.0"/>
            <path d="M8.55 0.4 L8.5 0.45 Q7.75 -1.0 6.3 -1.55 L3.55 -1.5 Q2.4 -1.05 1.5 0.55 L1.4 -0.7 Q2.75 -2.15 4.1 -2.4 L4.2 -2.45 4.55 -2.45 4.7 -2.5 4.7 -2.45 4.95 -2.45 6.35 -1.95 Q7.8 -1.25 8.55 0.4"
                  fill="#ffffff" fill-rule="evenodd" stroke="none"/>
            <path d="M-4.45 -2.45 L-4.05 -2.45 -3.95 -2.4 Q-2.6 -2.15 -1.4 -0.8 L-1.45 0.4 Q-2.35 -1.05 -3.45 -1.5 L-6.15 -1.55 Q-7.55 -1.0 -8.4 0.45 L-8.45 0.4 Q-7.6 -1.25 -6.25 -1.95 L-4.8 -2.45 -4.55 -2.45 -4.55 -2.5 -4.45 -2.45"
                  fill="#ffffff" fill-rule="evenodd" stroke="none"/>
            <path d="M12.45 5.2 Q12.9 0.95 10.05 -3.3 7.15 -7.7 7.25 -9.95 L3.8 -11.9 Q2.25 -12.5 0.05 -12.5 -2.2 -12.5 -3.75 -11.9 -4.9 -11.45 -7.2 -9.95 -7.05 -7.65 -9.95 -3.3 -12.8 0.95 -12.4 5.2 -12.05 8.7 -10.0 10.6 -8.5 12.0 -6.5 12.35 L-3.05 12.15 Q-1.3 11.45 0.05 8.8 1.8 11.45 3.35 12.15 L6.55 12.35 Q8.55 12.0 10.05 10.6 12.1 8.7 12.45 5.2 Z"
                  fill="none" stroke="#ffffff" stroke-linecap="butt" stroke-linejoin="miter-clip"
                  stroke-miterlimit="10.0" stroke-width="1.0"/>
        </g>
    </defs>
</svg>
