<?xml version="1.0" encoding="UTF-8" standalone="no"?>
<svg xmlns:xlink="http://www.w3.org/1999/xlink" height="27.3px" width="26.05px" xmlns="http://www.w3.org/2000/svg">
    <g transform="matrix(1.0, 0.0, 0.0, 1.0, 12.95, 14.35)">
        <use height="27.3" transform="matrix(1.0, 0.0, 0.0, 1.0, -12.95, -14.35)" width="26.05" xlink:href="#shape0"/>
    </g>
    <defs>
        <g id="shape0" transform="matrix(1.0, 0.0, 0.0, 1.0, 12.95, 14.35)">
            <path d="M3.25 -7.5 Q1.55 -6.45 0.8 -6.8 L0.8 3.8 5.65 3.8 Q6.4 2.1 6.85 -0.55 7.35 -3.3 6.95 -4.05 6.2 -4.1 5.05 -4.95 3.5 -6.05 3.25 -7.5 Z"
                  fill="none" stroke="#ffffff" stroke-linecap="butt" stroke-linejoin="miter-clip"
                  stroke-miterlimit="10.0" stroke-width="0.9"/>
            <path d="M-3.3 -7.5 Q-1.65 -6.45 -0.9 -6.8 L-0.9 3.8 -5.7 3.8 Q-6.45 2.1 -6.9 -0.55 -7.4 -3.3 -7.0 -4.05 -6.25 -4.1 -5.05 -4.95 -3.55 -6.05 -3.3 -7.5 Z"
                  fill="none" stroke="#ffffff" stroke-linecap="butt" stroke-linejoin="miter-clip"
                  stroke-miterlimit="10.0" stroke-width="0.9"/>
            <path d="M3.4 -9.4 Q5.65 -10.75 8.15 -9.1 10.45 -7.5 10.0 -6.4 L8.7 -6.7 Q8.1 -6.85 7.25 -6.35 7.15 -6.1 6.75 -6.15 6.35 -6.2 6.35 -6.6 L5.35 -8.0 3.4 -9.4 Z"
                  fill="none" stroke="#ffffff" stroke-linecap="butt" stroke-linejoin="miter-clip"
                  stroke-miterlimit="10.0" stroke-width="0.9"/>
            <path d="M5.65 5.35 L-5.7 5.35 -7.65 6.85 Q-8.0 7.45 -7.0 8.05 L-1.6 10.0 -0.05 7.7 1.55 10.0 6.95 8.05 Q8.25 7.45 7.8 6.85 L5.65 5.35 Z"
                  fill="none" stroke="#ffffff" stroke-linecap="butt" stroke-linejoin="miter-clip"
                  stroke-miterlimit="10.0" stroke-width="0.9"/>
            <path d="M-3.35 -9.4 Q-5.6 -10.75 -8.05 -9.1 -10.4 -7.5 -9.95 -6.4 L-8.65 -6.7 Q-8.05 -6.85 -7.2 -6.35 -7.15 -6.1 -6.75 -6.15 -6.3 -6.2 -6.3 -6.6 -6.2 -7.1 -5.35 -8.0 L-3.35 -9.4 Z"
                  fill="none" stroke="#ffffff" stroke-linecap="butt" stroke-linejoin="miter-clip"
                  stroke-miterlimit="10.0" stroke-width="0.9"/>
            <path d="M12.1 -8.55 Q10.0 -11.0 6.55 -12.5 3.5 -12.25 2.15 -11.15 L0.25 -9.05 -0.2 -9.05 -2.15 -11.15 Q-3.5 -12.25 -6.5 -12.5 -9.95 -11.0 -12.05 -8.55 -12.9 -6.0 -12.05 -5.15 -11.55 -4.65 -9.85 -4.6 -10.1 -3.15 -9.6 -0.45 -9.1 2.75 -7.9 4.35 -9.8 5.1 -10.15 7.0 -10.55 8.75 -9.45 9.55 L-2.0 12.4 0.05 12.5 2.05 12.4 9.5 9.55 Q10.6 8.75 10.25 7.0 9.85 5.1 7.95 4.35 9.15 2.75 9.7 -0.45 10.15 -3.15 9.9 -4.6 11.6 -4.65 12.1 -5.15 12.95 -6.0 12.1 -8.55 Z"
                  fill="none" stroke="#ffffff" stroke-linecap="butt" stroke-linejoin="miter-clip"
                  stroke-miterlimit="10.0" stroke-width="0.9"/>
        </g>
    </defs>
</svg>
