<?xml version="1.0" encoding="UTF-8" standalone="no"?>
<svg xmlns:xlink="http://www.w3.org/1999/xlink" height="20.0px" width="20.05px" xmlns="http://www.w3.org/2000/svg">
    <g transform="matrix(1.0, 0.0, 0.0, 1.0, 10.0, 10.0)">
        <use height="20.0" transform="matrix(1.0, 0.0, 0.0, 1.0, -10.0, -10.0)" width="20.05" xlink:href="#shape0"/>
    </g>
    <defs>
        <g id="shape0" transform="matrix(1.0, 0.0, 0.0, 1.0, 10.0, 10.0)">
            <path d="M10.0 -6.4 L8.7 -6.7 Q8.1 -6.85 7.25 -6.35 7.15 -6.1 6.75 -6.15 6.35 -6.2 6.35 -6.6 L5.35 -8.0 3.4 -9.4 Q5.65 -10.75 8.15 -9.1 10.45 -7.5 10.0 -6.4 M-6.3 -6.6 Q-6.3 -6.2 -6.75 -6.15 -7.15 -6.1 -7.2 -6.35 -8.05 -6.85 -8.65 -6.7 L-9.95 -6.4 Q-10.4 -7.5 -8.05 -9.1 -5.6 -10.75 -3.35 -9.4 L-5.35 -8.0 Q-6.2 -7.1 -6.3 -6.6 M7.8 6.85 Q8.25 7.45 6.95 8.05 L1.55 10.0 -0.05 7.7 -1.6 10.0 -7.0 8.05 Q-8.0 7.45 -7.65 6.85 L-5.7 5.35 5.65 5.35 7.8 6.85 M0.8 -6.8 Q1.55 -6.45 3.25 -7.5 3.5 -6.05 5.05 -4.95 6.2 -4.1 6.95 -4.05 7.35 -3.3 6.85 -0.55 6.4 2.1 5.65 3.8 L0.8 3.8 0.8 -6.8"
                  fill="#e76570" fill-rule="evenodd" stroke="none"/>
            <path d="M-7.0 -4.05 Q-6.25 -4.1 -5.05 -4.95 -3.55 -6.05 -3.3 -7.5 -1.65 -6.45 -0.9 -6.8 L-0.9 3.8 -5.7 3.8 Q-6.45 2.1 -6.9 -0.55 -7.4 -3.3 -7.0 -4.05"
                  fill="#e76570" fill-rule="evenodd" stroke="none"/>
        </g>
    </defs>
</svg>
