<?xml version="1.0" encoding="UTF-8" standalone="no"?>
<svg xmlns:xlink="http://www.w3.org/1999/xlink" height="25.45px" width="26.15px" xmlns="http://www.w3.org/2000/svg">
    <g transform="matrix(1.0, 0.0, 0.0, 1.0, 13.25, 12.7)">
        <use height="25.45" transform="matrix(1.0, 0.0, 0.0, 1.0, -13.25, -12.7)" width="26.15" xlink:href="#shape0"/>
    </g>
    <defs>
        <g id="shape0" transform="matrix(1.0, 0.0, 0.0, 1.0, 13.25, 12.7)">
            <path d="M10.0 -9.8 L2.3 -9.8 2.3 -7.7 5.95 -7.7 2.1 -3.85 Q0.0 -5.3 -2.4 -5.3 -5.55 -5.3 -7.75 -3.05 -10.0 -0.85 -10.0 2.3 -10.0 5.4 -7.75 7.65 -5.55 9.85 -2.4 9.85 0.7 9.85 2.95 7.65 5.15 5.4 5.15 2.3 5.15 0.2 4.15 -1.5 L7.75 -5.15 7.75 -1.65 10.0 -1.65 10.0 -9.8 M1.15 5.75 Q-0.3 7.2 -2.35 7.2 -4.4 7.2 -5.85 5.75 -7.3 4.3 -7.3 2.25 -7.3 0.2 -5.85 -1.25 -4.4 -2.7 -2.35 -2.7 -0.3 -2.7 1.15 -1.25 2.6 0.2 2.6 2.25 2.6 4.3 1.15 5.75"
                  fill="none" stroke="#ffffff" stroke-linecap="butt" stroke-linejoin="miter-clip"
                  stroke-miterlimit="10.0" stroke-width="1.0"/>
            <path d="M7.85 0.65 L7.85 2.15 Q7.85 6.35 4.9 9.3 1.9 12.25 -2.3 12.25 -6.5 12.25 -9.45 9.3 -12.4 6.35 -12.4 2.15 -12.4 -2.05 -9.45 -5.0 -6.5 -8.0 -2.3 -8.0 L-0.25 -7.65 -0.25 -12.2 12.4 -12.2 12.4 0.65 7.85 0.65 Z"
                  fill="none" stroke="#ffffff" stroke-linecap="butt" stroke-linejoin="miter-clip"
                  stroke-miterlimit="10.0" stroke-width="1.0"/>
        </g>
    </defs>
</svg>
