<?xml version="1.0" encoding="UTF-8" standalone="no"?>
<svg xmlns:xlink="http://www.w3.org/1999/xlink" height="26.0px" width="27.9px" xmlns="http://www.w3.org/2000/svg">
    <g transform="matrix(1.0, 0.0, 0.0, 1.0, 15.0, 13.0)">
        <use height="26.0" transform="matrix(1.0, 0.0, 0.0, 1.0, -15.0, -13.0)" width="27.9" xlink:href="#shape0"/>
    </g>
    <defs>
        <g id="shape0" transform="matrix(1.0, 0.0, 0.0, 1.0, 15.0, 13.0)">
            <path d="M8.2 -5.5 Q7.05 -7.05 5.1 -8.25 2.6 -9.85 -0.25 -10.0 -5.05 -9.7 -8.75 -5.4 -10.3 -3.6 -10.0 -1.75 -9.6 0.4 -6.0 -0.2 L-5.9 7.2 -4.6 8.6 Q-2.7 10.0 0.2 10.0 3.1 10.0 4.65 8.6 5.4 7.9 5.6 7.2 L5.7 -0.25 Q9.95 0.7 9.95 -1.55 9.95 -3.15 8.2 -5.5 Z"
                  fill="none" stroke="#ffffff" stroke-linecap="butt" stroke-linejoin="miter-clip"
                  stroke-miterlimit="10.0" stroke-width="1.0"/>
            <path d="M1.2 -7.55 L0.85 -6.65 Q0.45 -6.25 -0.05 -6.25 -0.55 -6.25 -0.9 -6.65 -1.25 -7.0 -1.25 -7.55 L-0.9 -8.45 Q-0.55 -8.8 -0.05 -8.8 0.5 -8.8 0.85 -8.45 L1.2 -7.55"
                  fill="#ffffff" fill-rule="evenodd" stroke="none"/>
            <path d="M12.4 -1.3 Q12.35 0.75 10.9 1.8 9.55 2.8 7.8 2.45 L7.75 9.8 Q4.35 12.5 -0.05 12.5 -4.5 12.5 -7.75 9.85 L-7.75 2.45 Q-9.6 2.85 -10.9 1.75 -12.25 0.65 -12.45 -1.6 -11.85 -6.25 -8.35 -9.35 -4.8 -12.5 -0.05 -12.5 4.75 -12.5 8.35 -9.25 11.85 -6.05 12.4 -1.3 Z"
                  fill="none" stroke="#ffffff" stroke-linecap="butt" stroke-linejoin="miter-clip"
                  stroke-miterlimit="10.0" stroke-width="1.0"/>
            <path d="M0.3 3.55 L-0.4 3.55 -0.4 -7.2 0.3 -7.2 0.3 3.55" fill="#ffffff" fill-rule="evenodd"
                  stroke="none"/>
        </g>
    </defs>
</svg>
