<?xml version="1.0" encoding="UTF-8" standalone="no"?>
<svg xmlns:xlink="http://www.w3.org/1999/xlink" height="19.65px" width="20.0px" xmlns="http://www.w3.org/2000/svg">
    <g transform="matrix(1.0, 0.0, 0.0, 1.0, 10.0, 9.8)">
        <use height="19.65" transform="matrix(1.0, 0.0, 0.0, 1.0, -10.0, -9.8)" width="20.0" xlink:href="#shape0"/>
    </g>
    <defs>
        <g id="shape0" transform="matrix(1.0, 0.0, 0.0, 1.0, 10.0, 9.8)">
            <path d="M1.15 5.75 Q2.6 4.3 2.6 2.25 2.6 0.2 1.15 -1.25 -0.3 -2.7 -2.35 -2.7 -4.4 -2.7 -5.85 -1.25 -7.3 0.2 -7.3 2.25 -7.3 4.3 -5.85 5.75 -4.4 7.2 -2.35 7.2 -0.3 7.2 1.15 5.75 M2.3 -7.7 L2.3 -9.8 10.0 -9.8 10.0 -1.65 7.75 -1.65 7.75 -5.15 4.15 -1.5 Q5.15 0.2 5.15 2.3 5.15 5.4 2.95 7.65 0.7 9.85 -2.4 9.85 -5.55 9.85 -7.75 7.65 -10.0 5.4 -10.0 2.3 -10.0 -0.85 -7.75 -3.05 -5.55 -5.3 -2.4 -5.3 0.0 -5.3 2.1 -3.85 L5.95 -7.7 2.3 -7.7"
                  fill="#e76570" fill-rule="evenodd" stroke="none"/>
        </g>
    </defs>
</svg>
