<?xml version="1.0" encoding="UTF-8" standalone="no"?>
<svg xmlns:xlink="http://www.w3.org/1999/xlink" height="20.0px" width="20.05px" xmlns="http://www.w3.org/2000/svg">
    <g transform="matrix(1.0, 0.0, 0.0, 1.0, 10.05, 10.0)">
        <use height="20.0" transform="matrix(1.0, 0.0, 0.0, 1.0, -10.05, -10.0)" width="20.05" xlink:href="#shape0"/>
    </g>
    <defs>
        <g id="shape0" transform="matrix(1.0, 0.0, 0.0, 1.0, 10.05, 10.0)">
            <path d="M10.0 -1.6 Q9.95 0.65 5.7 -0.3 L5.6 7.15 4.65 8.6 Q3.1 10.0 0.2 10.0 -2.65 10.0 -4.55 8.6 L-5.9 7.15 -6.0 -0.25 Q-9.6 0.4 -10.0 -1.8 -10.3 -3.6 -8.75 -5.4 -5.0 -9.7 -0.25 -10.0 2.6 -9.85 5.15 -8.3 7.05 -7.1 8.25 -5.55 10.0 -3.2 10.0 -1.6"
                  fill="#e76570" fill-rule="evenodd" stroke="none"/>
        </g>
    </defs>
</svg>
