<?xml version="1.0" encoding="UTF-8" standalone="no"?>
<svg xmlns:xlink="http://www.w3.org/1999/xlink" height="26.0px" width="25.8px" xmlns="http://www.w3.org/2000/svg">
    <g transform="matrix(1.0, 0.0, 0.0, 1.0, 12.9, 13.0)">
        <use height="26.0" transform="matrix(1.0, 0.0, 0.0, 1.0, -12.9, -13.0)" width="25.8" xlink:href="#shape0"/>
    </g>
    <defs>
        <g id="shape0" transform="matrix(1.0, 0.0, 0.0, 1.0, 12.9, 13.0)">
            <path d="M8.25 -5.55 Q7.05 -7.1 5.15 -8.3 2.6 -9.85 -0.25 -10.0 -5.0 -9.7 -8.75 -5.4 -10.3 -3.6 -10.0 -1.8 -9.6 0.4 -6.0 -0.25 L-5.9 7.15 -4.55 8.6 Q-2.65 10.0 0.2 10.0 3.1 10.0 4.65 8.6 L5.6 7.15 5.7 -0.3 Q9.95 0.65 10.0 -1.6 10.0 -3.2 8.25 -5.55 Z"
                  fill="none" stroke="#ffffff" stroke-linecap="butt" stroke-linejoin="miter-clip"
                  stroke-miterlimit="10.0" stroke-width="1.0"/>
            <path d="M1.2 -7.55 L0.85 -6.65 Q0.5 -6.3 -0.05 -6.3 -0.55 -6.3 -0.9 -6.65 -1.25 -7.05 -1.25 -7.55 L-0.9 -8.45 Q-0.55 -8.85 -0.05 -8.85 0.45 -8.85 0.85 -8.45 L1.2 -7.55"
                  fill="#ffffff" fill-rule="evenodd" stroke="none"/>
            <path d="M12.4 -1.35 Q12.35 0.7 10.95 1.75 9.6 2.75 7.8 2.4 L7.75 9.75 Q4.25 12.5 -0.05 12.5 -4.35 12.5 -7.75 9.8 L-7.75 2.4 Q-9.55 2.85 -10.9 1.75 -12.25 0.6 -12.4 -1.65 -11.8 -6.3 -8.3 -9.4 -4.8 -12.5 -0.05 -12.5 4.8 -12.5 8.35 -9.3 11.9 -6.1 12.4 -1.35 Z"
                  fill="none" stroke="#ffffff" stroke-linecap="butt" stroke-linejoin="miter-clip"
                  stroke-miterlimit="10.0" stroke-width="1.0"/>
            <path d="M0.3 3.5 L-0.35 3.5 -0.35 -7.2 0.3 -7.2 0.3 3.5" fill="#ffffff" fill-rule="evenodd" stroke="none"/>
        </g>
    </defs>
</svg>
