<?xml version="1.0" encoding="UTF-8" standalone="no"?>
<svg xmlns:xlink="http://www.w3.org/1999/xlink" height="26.0px" width="18.4px" xmlns="http://www.w3.org/2000/svg">
    <g transform="matrix(1.0, 0.0, 0.0, 1.0, 9.2, 13.0)">
        <use height="26.0" transform="matrix(1.0, 0.0, 0.0, 1.0, -9.2, -13.0)" width="18.4" xlink:href="#shape0"/>
    </g>
    <defs>
        <g id="shape0" transform="matrix(1.0, 0.0, 0.0, 1.0, 9.2, 13.0)">
            <path d="M3.0 -1.05 Q1.75 0.15 0.0 0.15 -1.75 0.15 -3.0 -1.05 -4.25 -2.3 -4.25 -4.05 -4.25 -5.8 -3.0 -7.05 -1.75 -8.3 0.0 -8.3 1.75 -8.3 3.0 -7.05 4.25 -5.8 4.25 -4.05 4.25 -2.3 3.0 -1.05 M4.6 -8.45 Q2.7 -10.35 0.0 -10.35 -2.7 -10.35 -4.6 -8.45 -6.5 -6.55 -6.5 -3.85 -6.5 -1.6 -5.1 0.1 -3.75 1.85 -1.65 2.4 L-1.65 3.85 -5.45 3.85 -5.45 6.5 -1.65 6.5 -1.65 10.4 1.25 10.4 1.25 6.5 5.05 6.5 5.05 3.85 1.25 3.85 1.25 2.5 Q3.5 2.05 5.0 0.3 6.5 -1.5 6.5 -3.85 6.5 -6.55 4.6 -8.45"
                  fill="none" stroke="#ffffff" stroke-linecap="butt" stroke-linejoin="miter-clip"
                  stroke-miterlimit="10.0" stroke-width="1.0"/>
            <path d="M8.7 -3.8 Q8.7 -0.6 6.15 2.1 L7.15 2.1 7.15 8.6 3.25 8.6 3.25 12.5 -3.5 12.5 -3.5 8.6 -7.4 8.6 -7.4 2.1 -6.4 2.1 Q-8.7 -0.3 -8.7 -3.8 -8.7 -7.4 -6.15 -9.95 -3.6 -12.5 0.0 -12.5 3.6 -12.5 6.15 -9.95 8.7 -7.4 8.7 -3.8 Z"
                  fill="none" stroke="#ffffff" stroke-linecap="butt" stroke-linejoin="miter-clip"
                  stroke-miterlimit="10.0" stroke-width="1.0"/>
        </g>
    </defs>
</svg>
