<?xml version="1.0" encoding="UTF-8" standalone="no"?>
<svg xmlns:xlink="http://www.w3.org/1999/xlink" height="27.95px" width="23.9px" xmlns="http://www.w3.org/2000/svg">
    <g transform="matrix(1.0, 0.0, 0.0, 1.0, 12.35, 14.95)">
        <use height="27.95" transform="matrix(1.0, 0.0, 0.0, 1.0, -12.35, -14.95)" width="23.9" xlink:href="#shape0"/>
    </g>
    <defs>
        <g id="shape0" transform="matrix(1.0, 0.0, 0.0, 1.0, 12.35, 14.95)">
            <path d="M5.35 -8.55 Q4.85 -8.95 4.2 -8.95 3.55 -8.95 3.1 -8.55 2.65 -8.15 2.65 -7.6 L2.65 -8.6 2.2 -9.55 Q1.7 -9.95 1.05 -9.95 0.4 -9.95 -0.05 -9.55 -0.5 -9.15 -0.5 -8.6 L-0.5 -7.25 Q-0.5 -7.8 -0.95 -8.2 -1.45 -8.6 -2.1 -8.6 -2.75 -8.6 -3.2 -8.2 -3.65 -7.8 -3.65 -7.25 L-3.65 2.55 -6.25 0.05 -7.25 -0.5 -8.45 -0.25 Q-8.95 0.05 -9.05 0.6 L-8.7 1.55 -4.0 8.2 Q-2.75 10.2 2.35 10.05 8.0 9.9 8.95 4.95 L8.95 -5.3 Q8.95 -5.85 8.5 -6.2 8.0 -6.6 7.35 -6.6 6.7 -6.6 6.25 -6.2 5.8 -5.85 5.8 -5.3 L5.8 -7.6 5.35 -8.55 Z"
                  fill="none" stroke="#ffffff" stroke-linecap="butt" stroke-linejoin="miter-clip"
                  stroke-miterlimit="10.0" stroke-width="0.9"/>
            <path d="M11.05 -6.85 L11.05 5.75 Q9.95 12.25 2.6 12.5 -0.1 12.6 -2.65 11.75 -5.05 11.0 -5.55 10.1 L-10.9 1.75 -10.85 -0.35 Q-10.55 -1.6 -10.0 -2.05 -8.45 -3.2 -7.1 -2.65 L-5.35 -1.4 -5.35 -9.7 -3.9 -11.05 -1.65 -10.85 0.05 -12.25 Q1.8 -13.1 3.3 -11.3 4.75 -11.85 6.05 -10.95 7.25 -10.1 7.4 -8.85 L9.4 -8.45 Q10.15 -8.05 11.05 -6.85 Z"
                  fill="none" stroke="#ffffff" stroke-linecap="butt" stroke-linejoin="miter-clip"
                  stroke-miterlimit="10.0" stroke-width="1.0"/>
            <path d="M-0.5 -7.25 L-0.5 -1.65" fill="none" stroke="#ffffff" stroke-linecap="butt"
                  stroke-linejoin="miter-clip" stroke-miterlimit="10.0" stroke-width="0.9"/>
            <path d="M2.65 -7.45 L2.65 -1.35" fill="none" stroke="#ffffff" stroke-linecap="butt"
                  stroke-linejoin="miter-clip" stroke-miterlimit="10.0" stroke-width="0.9"/>
            <path d="M5.8 -5.3 L5.8 -0.55" fill="none" stroke="#ffffff" stroke-linecap="butt"
                  stroke-linejoin="miter-clip" stroke-miterlimit="10.0" stroke-width="0.9"/>
        </g>
    </defs>
</svg>
