<?xml version="1.0" encoding="UTF-8" standalone="no"?>
<svg xmlns:xlink="http://www.w3.org/1999/xlink" height="20.0px" width="18.0px" xmlns="http://www.w3.org/2000/svg">
    <g transform="matrix(1.0, 0.0, 0.0, 1.0, 9.05, 9.95)">
        <use height="20.0" transform="matrix(1.0, 0.0, 0.0, 1.0, -9.05, -9.95)" width="18.0" xlink:href="#shape0"/>
    </g>
    <defs>
        <g id="shape0" transform="matrix(1.0, 0.0, 0.0, 1.0, 9.05, 9.95)">
            <path d="M5.35 -8.55 L5.8 -7.6 5.8 -5.3 Q5.8 -5.85 6.25 -6.2 6.7 -6.6 7.35 -6.6 8.0 -6.6 8.5 -6.2 8.95 -5.85 8.95 -5.3 L8.95 4.95 Q8.0 9.9 2.35 10.05 -2.75 10.2 -4.0 8.2 L-8.7 1.55 -9.05 0.6 Q-8.95 0.05 -8.45 -0.25 L-7.25 -0.5 -6.25 0.05 -3.65 2.55 -3.65 -7.25 Q-3.65 -7.8 -3.2 -8.2 -2.75 -8.6 -2.1 -8.6 -1.45 -8.6 -0.95 -8.2 -0.5 -7.8 -0.5 -7.25 L-0.5 -8.6 Q-0.5 -9.15 -0.05 -9.55 0.4 -9.95 1.05 -9.95 1.7 -9.95 2.2 -9.55 L2.65 -8.6 2.65 -7.6 Q2.65 -8.15 3.1 -8.55 3.55 -8.95 4.2 -8.95 4.85 -8.95 5.35 -8.55"
                  fill="#e76570" fill-rule="evenodd" stroke="none"/>
        </g>
    </defs>
</svg>
