<?xml version="1.0" encoding="UTF-8" standalone="no"?>
<svg xmlns:xlink="http://www.w3.org/1999/xlink" height="20.9px" width="21.75px" xmlns="http://www.w3.org/2000/svg">
    <g transform="matrix(1.0, 0.0, 0.0, 1.0, 10.85, 10.95)">
        <use height="20.9" transform="matrix(1.0, 0.0, 0.0, 1.0, -10.85, -10.95)" width="21.75" xlink:href="#shape0"/>
    </g>
    <defs>
        <g id="shape0" transform="matrix(1.0, 0.0, 0.0, 1.0, 10.85, 10.95)">
            <path d="M10.45 -5.35 L10.45 -3.9 Q10.3 -1.45 9.0 0.6 8.05 2.0 6.1 3.8 L0.05 9.5 -0.05 9.5 -6.25 3.6 Q-8.25 1.7 -9.05 0.4 -10.35 -1.75 -10.4 -4.4 L-10.4 -5.1 Q-9.9 -9.8 -5.45 -10.5 L-4.55 -10.5 Q-1.5 -10.0 -0.05 -7.35 2.0 -10.15 4.55 -10.5 L5.55 -10.5 Q9.8 -9.8 10.45 -5.35 Z"
                  fill="none" stroke="#ffffff" stroke-linecap="butt" stroke-linejoin="miter-clip"
                  stroke-miterlimit="10.0" stroke-width="0.9500000000000001"/>
        </g>
    </defs>
</svg>
