<?xml version="1.0" encoding="UTF-8" standalone="no"?>
<svg xmlns:xlink="http://www.w3.org/1999/xlink" height="26.0px" width="27.75px" xmlns="http://www.w3.org/2000/svg">
    <g transform="matrix(1.0, 0.0, 0.0, 1.0, 13.0, 13.0)">
        <use height="26.0" transform="matrix(1.0, 0.0, 0.0, 1.0, -13.0, -13.0)" width="27.75" xlink:href="#shape0"/>
    </g>
    <defs>
        <g id="shape0" transform="matrix(1.0, 0.0, 0.0, 1.0, 13.0, 13.0)">
            <path d="M6.1 2.6 L-0.05 3.45 -6.2 2.6 -9.8 1.5 Q-10.1 1.8 -9.95 2.8 L-9.55 4.4 Q-5.85 4.6 -3.75 6.0 -1.7 7.4 -1.7 9.55 -1.7 10.0 -0.05 10.0 1.6 10.0 1.6 9.55 1.6 7.4 3.8 6.0 5.95 4.6 9.7 4.35 L10.0 2.8 Q10.0 1.8 9.7 1.5 L6.1 2.6 Z"
                  fill="none" stroke="#ffffff" stroke-linecap="butt" stroke-linejoin="miter-clip"
                  stroke-miterlimit="10.0" stroke-width="1.0"/>
            <path d="M9.45 -2.75 Q7.7 -2.95 7.3 -3.25 6.0 -4.35 6.8 -8.25 L3.35 -10.0 Q3.55 -8.15 3.2 -6.65 2.6 -3.6 -0.15 -3.6 -3.35 -3.6 -3.6 -6.5 L-3.2 -9.75 -6.7 -8.3 Q-5.9 -4.45 -7.55 -3.2 L-10.0 -2.45 -8.7 -0.5 Q-8.7 -0.1 -6.05 0.55 L-0.05 1.25 6.1 0.4 Q8.85 -0.35 8.85 -0.75 L9.45 -2.75 Z"
                  fill="none" stroke="#ffffff" stroke-linecap="butt" stroke-linejoin="miter-clip"
                  stroke-miterlimit="10.0" stroke-width="1.0"/>
            <path d="M9.25 -4.9 Q7.8 -6.2 8.6 -9.5 6.35 -10.85 2.5 -12.5 1.5 -12.35 1.0 -10.8 0.55 -9.25 0.1 -9.2 -0.5 -9.25 -1.0 -10.8 -1.5 -12.35 -2.5 -12.5 -6.35 -10.85 -8.55 -9.5 -7.8 -6.15 -9.2 -4.9 -10.5 -3.75 -11.65 -5.05 L-12.5 -3.75 Q-12.55 -3.1 -11.65 -1.7 L-10.5 0.0 Q-11.9 0.5 -11.9 2.75 -11.9 4.35 -11.55 5.2 L-10.7 6.7 Q-6.0 6.2 -4.1 8.55 -2.95 9.95 -2.95 12.1 L0.25 12.5 3.0 12.1 Q3.0 9.95 4.1 8.55 6.0 6.2 10.75 6.7 L11.55 5.2 Q12.75 0.75 10.55 0.0 L11.7 -1.7 Q12.6 -3.1 12.5 -3.75 L11.65 -5.05 Q10.5 -3.75 9.25 -4.9 Z"
                  fill="none" stroke="#ffffff" stroke-linecap="butt" stroke-linejoin="miter-clip"
                  stroke-miterlimit="10.0" stroke-width="1.0"/>
        </g>
    </defs>
</svg>
