<?xml version="1.0" encoding="UTF-8" standalone="no"?>
<svg xmlns:xlink="http://www.w3.org/1999/xlink" height="25.85px" width="25.7px" xmlns="http://www.w3.org/2000/svg">
    <g transform="matrix(1.0, 0.0, 0.0, 1.0, 12.85, 12.85)">
        <use height="25.85" transform="matrix(1.0, 0.0, 0.0, 1.0, -12.85, -12.85)" width="25.7" xlink:href="#shape0"/>
    </g>
    <defs>
        <g id="shape0" transform="matrix(1.0, 0.0, 0.0, 1.0, 12.85, 12.85)">
            <path d="M1.4 -5.4 Q-0.7 -6.45 -2.85 -5.95 -4.8 -5.55 -5.8 -4.1 -6.8 -2.55 -6.35 -0.9 -5.95 0.55 -4.5 1.35 -3.05 2.15 -1.35 1.8 L-1.0 1.7 -1.7 1.95 Q-3.5 2.35 -5.25 1.45 -6.9 0.5 -7.35 -1.1 -7.9 -3.35 -6.6 -5.25 -5.2 -7.15 -2.7 -7.7 1.1 -8.5 4.2 -6.6 6.7 -5.1 7.1 -2.55 7.45 -0.05 6.1 1.45 5.15 2.5 2.05 4.05 -0.3 5.25 -1.35 6.0 -3.15 7.3 -4.0 8.9 L-1.1 10.05 Q-0.55 9.0 0.8 8.05 L3.65 6.45 Q7.15 4.7 8.5 3.25 10.8 0.8 10.25 -2.9 9.7 -6.6 6.0 -8.9 3.95 -10.1 1.45 -10.5 -1.05 -10.9 -3.45 -10.4 -7.3 -9.6 -9.3 -6.7 -11.3 -3.75 -10.4 -0.45 -9.7 2.3 -6.9 3.8 -4.1 5.35 -0.95 4.65 1.7 4.1 3.1 2.05 4.55 -0.05 3.9 -2.35 3.35 -4.3 1.4 -5.4 Z"
                  fill="none" stroke="#ffffff" stroke-linecap="butt" stroke-linejoin="miter-clip"
                  stroke-miterlimit="10.0" stroke-width="0.75"/>
            <path d="M-4.7 6.35 L-7.0 9.55 0.15 12.5 Q0.8 10.6 6.65 7.25 12.05 4.1 12.45 0.0 12.85 -5.2 9.4 -8.8 5.85 -12.5 -0.15 -12.5 -5.9 -12.5 -9.4 -9.35 -13.25 -5.95 -12.35 -0.3 -12.1 2.0 -9.55 4.15 -7.05 6.35 -4.7 6.35 Z"
                  fill="none" stroke="#ffffff" stroke-linecap="butt" stroke-linejoin="miter-clip"
                  stroke-miterlimit="10.0" stroke-width="0.75"/>
            <path d="M0.5 -2.2 Q0.5 -1.35 -0.1 -0.8 -0.65 -0.2 -1.5 -0.2 -2.35 -0.2 -2.95 -0.8 -3.55 -1.35 -3.55 -2.2 -3.55 -3.0 -2.95 -3.55 -2.35 -4.15 -1.5 -4.15 -0.7 -4.15 -0.1 -3.55 0.5 -3.0 0.5 -2.2 Z"
                  fill="none" stroke="#ffffff" stroke-linecap="butt" stroke-linejoin="miter-clip"
                  stroke-miterlimit="10.0" stroke-width="0.4"/>
        </g>
    </defs>
</svg>
