<?xml version="1.0" encoding="UTF-8" standalone="no"?>
<svg xmlns:xlink="http://www.w3.org/1999/xlink" height="26.05px" width="26.45px" xmlns="http://www.w3.org/2000/svg">
    <g transform="matrix(1.0, 0.0, 0.0, 1.0, 13.25, 13.0)">
        <use height="26.05" transform="matrix(1.0, 0.0, 0.0, 1.0, -13.25, -13.0)" width="26.45" xlink:href="#shape0"/>
    </g>
    <defs>
        <g id="shape0" transform="matrix(1.0, 0.0, 0.0, 1.0, 13.25, 13.0)">
            <path d="M-4.05 -9.9 L-1.7 -9.6 0.0 -8.1 Q-2.9 -6.5 -3.0 -2.55 -3.05 1.55 0.0 5.6 -1.6 8.2 -3.4 10.05 -7.9 8.0 -9.4 3.95 -9.85 2.7 -10.05 -0.25 -9.85 -3.8 -8.1 -6.5 -6.45 -8.95 -4.05 -9.9 Z"
                  fill="none" stroke="#ffffff" stroke-linecap="butt" stroke-linejoin="miter-clip"
                  stroke-miterlimit="10.0" stroke-width="0.9"/>
            <path d="M1.6 -9.6 L-0.1 -8.1 Q2.8 -6.5 2.9 -2.55 3.05 1.5 0.0 5.55 1.4 8.05 3.3 10.0 7.85 8.0 9.35 3.9 9.95 2.2 9.95 -0.3 9.65 -8.2 4.0 -9.9 L1.6 -9.6 Z"
                  fill="none" stroke="#ffffff" stroke-linecap="butt" stroke-linejoin="miter-clip"
                  stroke-miterlimit="10.0" stroke-width="0.9"/>
            <path d="M-1.8 -2.45 Q-1.85 0.0 0.0 2.45 1.85 0.0 1.75 -2.45 1.7 -4.8 -0.05 -5.8 -1.75 -4.8 -1.8 -2.45 Z"
                  fill="none" stroke="#ffffff" stroke-linecap="butt" stroke-linejoin="miter-clip"
                  stroke-miterlimit="10.0" stroke-width="0.5"/>
            <path d="M12.5 0.05 Q12.5 4.35 9.75 7.85 7.1 11.2 3.1 12.45 L0.0 8.95 -2.95 12.5 Q-7.0 11.3 -9.7 7.9 -12.5 4.35 -12.5 0.05 -12.5 -4.3 -10.0 -7.8 -7.45 -11.4 -3.6 -12.35 L0.0 -10.9 3.35 -12.5 Q7.4 -11.4 9.95 -7.95 12.5 -4.45 12.5 0.05 Z"
                  fill="none" stroke="#ffffff" stroke-linecap="butt" stroke-linejoin="miter-clip"
                  stroke-miterlimit="10.0" stroke-width="1.0"/>
        </g>
    </defs>
</svg>
