<?xml version="1.0" encoding="UTF-8" standalone="no"?>
<svg xmlns:xlink="http://www.w3.org/1999/xlink" height="20.0px" width="20.0px" xmlns="http://www.w3.org/2000/svg">
    <g transform="matrix(1.0, 0.0, 0.0, 1.0, 10.05, 9.95)">
        <use height="20.0" transform="matrix(1.0, 0.0, 0.0, 1.0, -10.05, -9.95)" width="20.0" xlink:href="#shape0"/>
    </g>
    <defs>
        <g id="shape0" transform="matrix(1.0, 0.0, 0.0, 1.0, 10.05, 9.95)">
            <path d="M1.75 -2.45 Q1.85 0.0 0.0 2.45 -1.85 0.0 -1.8 -2.45 -1.75 -4.8 -0.05 -5.8 1.7 -4.8 1.75 -2.45 M1.6 -9.6 L4.0 -9.9 Q9.65 -8.2 9.95 -0.3 9.95 2.2 9.35 3.9 7.85 8.0 3.3 10.0 1.4 8.05 0.0 5.55 3.05 1.5 2.9 -2.55 2.8 -6.45 -0.05 -8.05 -2.9 -6.45 -3.0 -2.55 -3.05 1.55 0.0 5.6 -1.6 8.2 -3.4 10.05 -7.9 8.0 -9.4 3.95 -9.85 2.7 -10.05 -0.25 -9.85 -3.8 -8.1 -6.5 -6.45 -8.95 -4.05 -9.9 L-1.7 -9.6 -0.05 -8.15 1.6 -9.6"
                  fill="#e76570" fill-rule="evenodd" stroke="none"/>
        </g>
    </defs>
</svg>
