<?xml version="1.0" encoding="UTF-8" standalone="no"?>
<svg xmlns:xlink="http://www.w3.org/1999/xlink" height="26.0px" width="26.15px" xmlns="http://www.w3.org/2000/svg">
    <g transform="matrix(1.0, 0.0, 0.0, 1.0, 13.05, 13.0)">
        <use height="26.0" transform="matrix(1.0, 0.0, 0.0, 1.0, -13.05, -13.0)" width="26.15" xlink:href="#shape0"/>
    </g>
    <defs>
        <g id="shape0" transform="matrix(1.0, 0.0, 0.0, 1.0, 13.05, 13.0)">
            <path d="M3.45 -10.0 L9.95 -6.5 8.3 -0.85 5.25 -2.25 5.25 10.0 -5.35 10.0 -5.35 -2.25 -8.45 -0.85 -10.05 -6.5 -3.55 -10.0 Q-3.0 -8.4 -2.25 -7.85 -1.6 -7.35 -0.05 -7.35 1.45 -7.35 2.05 -7.8 2.65 -8.25 3.45 -10.0 Z"
                  fill="none" stroke="#ffffff" stroke-linecap="butt" stroke-linejoin="miter-clip"
                  stroke-miterlimit="4.0" stroke-width="0.9500000000000001"/>
            <path d="M3.2 -12.5 L12.5 -7.8 9.75 1.65 7.45 0.8 7.35 12.5 -7.2 12.5 -7.4 0.8 -10.15 1.75 -12.5 -7.65 -3.2 -12.5 3.2 -12.5 Z"
                  fill="none" stroke="#ffffff" stroke-linecap="butt" stroke-linejoin="miter-clip"
                  stroke-miterlimit="10.0" stroke-width="1.0"/>
        </g>
    </defs>
</svg>
