<?xml version="1.0" encoding="UTF-8" standalone="no"?>
<svg xmlns:xlink="http://www.w3.org/1999/xlink" height="25.8px" width="25.8px" xmlns="http://www.w3.org/2000/svg">
    <g transform="matrix(1.0, 0.0, 0.0, 1.0, 12.9, 12.9)">
        <use height="25.8" transform="matrix(1.0, 0.0, 0.0, 1.0, -12.9, -12.9)" width="25.8" xlink:href="#shape0"/>
    </g>
    <defs>
        <g id="shape0" transform="matrix(1.0, 0.0, 0.0, 1.0, 12.9, 12.9)">
            <path d="M8.0 5.5 L0.1 -8.95 -7.85 5.55 Q-7.8 7.35 -5.5 8.7 -3.2 10.0 0.1 10.0 3.35 10.0 5.7 8.65 8.0 7.35 8.0 5.5 Z"
                  fill="none" stroke="#ffffff" stroke-linecap="butt" stroke-linejoin="round" stroke-width="0.75"/>
            <path d="M-6.2 -0.95 L-2.4 -7.9 Q-2.4 -8.75 -3.5 -9.4 -4.65 -10.0 -6.2 -10.0 -7.8 -10.0 -8.9 -9.35 -10.0 -8.75 -10.0 -7.85 L-6.2 -0.95 Z"
                  fill="none" stroke="#ffffff" stroke-linecap="butt" stroke-linejoin="round"
                  stroke-width="0.8500000000000001"/>
            <path d="M10.0 -7.9 Q10.0 -8.75 8.9 -9.4 7.75 -10.0 6.2 -10.0 4.65 -10.0 3.55 -9.35 2.45 -8.75 2.45 -7.85 L6.2 -0.95 10.0 -7.9 Z"
                  fill="none" stroke="#ffffff" stroke-linecap="butt" stroke-linejoin="round"
                  stroke-width="0.8500000000000001"/>
            <path d="M12.5 -8.35 Q11.7 -10.25 9.3 -11.65 5.7 -13.7 1.6 -10.9 L-1.55 -10.9 Q-5.65 -13.7 -9.25 -11.65 -11.55 -10.35 -12.5 -8.35 L-7.5 0.9 -9.65 4.45 -10.55 6.15 Q-10.75 6.9 -10.05 7.85 -8.7 9.9 -5.85 11.2 -3.05 12.5 -0.05 12.5 2.95 12.5 5.85 11.2 8.75 9.85 10.1 7.85 10.8 6.9 10.55 6.15 L9.65 4.45 7.55 0.9 12.5 -8.35 Z"
                  fill="none" stroke="#ffffff" stroke-linecap="butt" stroke-linejoin="round"
                  stroke-width="0.8500000000000001"/>
        </g>
    </defs>
</svg>
