<?xml version="1.0" encoding="UTF-8" standalone="no"?>
<svg xmlns:xlink="http://www.w3.org/1999/xlink" height="26.0px" width="26.0px" xmlns="http://www.w3.org/2000/svg">
    <g transform="matrix(1.0, 0.0, 0.0, 1.0, 13.0, 13.0)">
        <use height="26.0" transform="matrix(1.0, 0.0, 0.0, 1.0, -13.0, -13.0)" width="26.0" xlink:href="#shape0"/>
    </g>
    <defs>
        <g id="shape0" transform="matrix(1.0, 0.0, 0.0, 1.0, 13.0, 13.0)">
            <path d="M0.0 -12.5 L-12.5 12.5 12.5 12.45 0.0 -12.5 M0.0 -7.3 L-9.0 10.7 9.0 10.65 0.0 -7.3" fill="none"
                  stroke="#ffffff" stroke-linecap="butt" stroke-linejoin="round" stroke-width="1.0"/>
            <path d="M0.0 7.8 Q-0.55 7.8 -0.95 7.4 -1.35 7.0 -1.35 6.45 -1.35 5.85 -0.95 5.45 L-0.7 5.25 -0.05 5.05 0.05 5.05 0.75 5.25 1.0 5.45 Q1.4 5.85 1.4 6.45 1.4 7.0 1.0 7.4 0.6 7.8 0.0 7.8 M1.15 4.05 L-1.1 4.05 -1.1 -0.75 1.15 -0.75 1.15 4.05"
                  fill="#ffffff" fill-rule="evenodd" stroke="none"/>
        </g>
    </defs>
</svg>
