<?xml version="1.0" encoding="UTF-8" standalone="no"?>
<svg xmlns:xlink="http://www.w3.org/1999/xlink" height="20.0px" width="20.0px" xmlns="http://www.w3.org/2000/svg">
    <g transform="matrix(1.0, 0.0, 0.0, 1.0, 10.0, 10.0)">
        <use height="20.0" transform="matrix(1.0, 0.0, 0.0, 1.0, -10.0, -10.0)" width="20.0" xlink:href="#shape0"/>
    </g>
    <defs>
        <g id="shape0" transform="matrix(1.0, 0.0, 0.0, 1.0, 10.0, 10.0)">
            <path d="M-3.5 -9.4 Q-2.4 -8.75 -2.4 -7.9 L-6.2 -0.95 -10.0 -7.85 Q-10.0 -8.75 -8.9 -9.35 -7.8 -10.0 -6.2 -10.0 -4.65 -10.0 -3.5 -9.4 M6.2 -10.0 Q7.75 -10.0 8.9 -9.4 10.0 -8.75 10.0 -7.9 L6.2 -0.95 2.45 -7.85 Q2.45 -8.75 3.55 -9.35 4.65 -10.0 6.2 -10.0"
                  fill="#e76570" fill-rule="evenodd" stroke="none"/>
            <path d="M8.0 5.5 Q8.0 7.35 5.7 8.65 3.35 10.0 0.1 10.0 -3.2 10.0 -5.5 8.7 -7.8 7.35 -7.85 5.55 L0.1 -8.95 8.0 5.5"
                  fill="#e76570" fill-rule="evenodd" stroke="none"/>
        </g>
    </defs>
</svg>
