<?xml version="1.0" encoding="UTF-8" standalone="no"?>
<svg xmlns:xlink="http://www.w3.org/1999/xlink" height="21.3px" width="20.9px" xmlns="http://www.w3.org/2000/svg">
    <g transform="matrix(1.0, 0.0, 0.0, 1.0, 10.65, 10.7)">
        <use height="21.3" transform="matrix(1.0, 0.0, 0.0, 1.0, -10.65, -10.7)" width="20.9" xlink:href="#shape0"/>
    </g>
    <defs>
        <g id="shape0" transform="matrix(1.0, 0.0, 0.0, 1.0, 10.65, 10.7)">
            <path d="M-9.3 10.6 Q-10.95 10.65 -10.6 7.95 -10.3 5.25 -7.55 5.2 L8.3 7.4 Q9.45 7.6 10.0 8.6 L10.25 9.45 Q10.3 9.95 10.0 10.25 9.7 10.6 9.25 10.6 L-9.3 10.6 M-7.8 3.2 Q-8.5 2.75 -7.8 1.5 -7.15 0.3 -6.5 0.05 L0.45 0.85 7.35 2.05 Q8.3 2.45 9.05 3.7 9.8 5.05 9.15 5.65 L0.85 4.75 -7.8 3.2 M4.15 -2.7 Q5.1 -2.55 5.55 -2.0 L6.55 -0.5 Q6.85 0.35 6.4 0.25 L-4.7 -1.5 Q-5.7 -1.65 -5.05 -3.1 -4.35 -4.55 -3.05 -4.15 L4.15 -2.7 M1.25 -10.7 Q3.6 -10.85 4.6 -7.75 5.5 -4.85 4.45 -4.1 L-1.35 -5.4 -0.35 -6.25 Q0.45 -6.65 0.1 -7.65 -0.25 -8.55 -1.3 -7.95 L-3.15 -6.2 Q-4.25 -7.5 -3.0 -9.0 -1.65 -10.6 1.25 -10.7"
                  fill="#e86d76" fill-rule="evenodd" stroke="none"/>
        </g>
    </defs>
</svg>
