<?xml version="1.0" encoding="UTF-8" standalone="no"?>
<svg xmlns:xlink="http://www.w3.org/1999/xlink" height="28.75px" width="26.5px" xmlns="http://www.w3.org/2000/svg">
    <g transform="matrix(1.0, 0.0, 0.0, 1.0, 13.3, 13.2)">
        <use height="28.75" transform="matrix(1.0, 0.0, 0.0, 1.0, -13.3, -13.2)" width="26.5" xlink:href="#shape0"/>
    </g>
    <defs>
        <g id="shape0" transform="matrix(1.0, 0.0, 0.0, 1.0, 13.3, 13.2)">
            <path d="M10.0 10.25 Q10.3 9.95 10.25 9.45 L10.0 8.6 Q9.45 7.6 8.3 7.4 L-7.55 5.2 Q-10.3 5.25 -10.6 7.95 -10.95 10.65 -9.3 10.6 L9.25 10.6 Q9.7 10.6 10.0 10.25 Z"
                  fill="none" stroke="#ffffff" stroke-linecap="butt" stroke-linejoin="miter-clip"
                  stroke-miterlimit="10.0" stroke-width="1.0"/>
            <path d="M7.35 2.05 L0.45 0.85 -6.5 0.05 Q-7.15 0.3 -7.8 1.5 -8.5 2.75 -7.8 3.2 L0.85 4.75 9.15 5.65 Q9.8 5.05 9.05 3.7 8.3 2.45 7.35 2.05 Z"
                  fill="none" stroke="#ffffff" stroke-linecap="butt" stroke-linejoin="miter-clip"
                  stroke-miterlimit="10.0" stroke-width="1.0"/>
            <path d="M4.15 -2.7 L-3.05 -4.15 Q-4.35 -4.55 -5.05 -3.1 -5.7 -1.65 -4.7 -1.5 L6.4 0.25 Q6.85 0.35 6.55 -0.5 L5.55 -2.0 Q5.1 -2.55 4.15 -2.7 Z"
                  fill="none" stroke="#ffffff" stroke-linecap="butt" stroke-linejoin="miter-clip"
                  stroke-miterlimit="10.0" stroke-width="1.0"/>
            <path d="M1.25 -10.7 Q-1.65 -10.6 -3.0 -9.0 -4.25 -7.5 -3.15 -6.2 L-1.3 -7.95 Q-0.25 -8.55 0.1 -7.65 0.45 -6.65 -0.35 -6.25 L-1.35 -5.4 4.45 -4.1 Q5.5 -4.85 4.6 -7.75 3.6 -10.85 1.25 -10.7 Z"
                  fill="none" stroke="#ffffff" stroke-linecap="butt" stroke-linejoin="miter-clip"
                  stroke-miterlimit="10.0" stroke-width="1.0"/>
            <path d="M9.1 0.5 Q10.5 2.0 11.05 3.75 11.5 5.3 11.15 6.55 12.35 7.65 12.5 9.65 12.6 11.35 12.0 12.1 L0.4 12.45 -6.95 12.5 -11.2 12.25 Q-12.45 11.35 -12.5 8.85 -12.55 5.85 -10.15 3.5 -10.15 1.25 -7.35 -1.9 -7.45 -4.5 -5.45 -5.95 -6.1 -9.3 -3.6 -11.1 -1.65 -12.5 1.2 -12.5 4.45 -12.5 5.95 -9.15 7.25 -6.3 6.5 -3.7 L8.15 -1.65 9.1 0.5 Z"
                  fill="none" stroke="#ffffff" stroke-linecap="butt" stroke-linejoin="miter-clip"
                  stroke-miterlimit="10.0" stroke-width="1.4000000000000001"/>
        </g>
    </defs>
</svg>
